 <svg  version="1.0" xmlns="http://www.w3.org/2000/svg"  width="832.000000pt" height="1126.000000pt" viewBox="0 0 832.000000 1126.000000"  preserveAspectRatio="xMidYMid meet">  <g transform="translate(0.000000,1126.000000) scale(0.100000,-0.100000)" fill="#dedede" stroke="none"> <path d="M340 10934 c-46 -20 -87 -60 -113 -109 -16 -32 -21 -63 -24 -153 -2 -76 0 -111 7 -107 6 3 10 46 10 98 0 51 5 110 11 132 15 55 83 119 142 133 33 9 527 12 1861 12 1806 0 1815 0 1870 -20 56 -21 106 -68 129 -119 8 -18 14 -155 17 -446 l6 -420 2 420 c1 388 0 423 -17 460 -23 51 -89 111 -138 124 -26 8 -612 11 -1883 11 -1626 -1 -1849 -3 -1880 -16z"/> <path d="M2192 10809 c2 -7 28 -26 57 -41 53 -28 53 -28 26 -38 -14 -6 -67 -39 -117 -75 -63 -45 -100 -65 -121 -65 -25 0 -28 -2 -17 -15 7 -8 25 -15 41 -15 16 0 29 -4 29 -8 0 -4 -30 -40 -66 -80 -68 -75 -74 -87 -21 -50 29 21 30 21 23 2 -29 -71 -46 -132 -45 -163 l0 -36 16 48 c9 26 19 47 22 47 3 0 6 -27 6 -59 1 -46 8 -72 33 -121 31 -60 31 -62 13 -82 -69 -73 1 -258 96 -258 13 0 23 -12 32 -35 27 -77 161 -187 252 -209 26 -6 39 -29 39 -71 0 -17 -18 -26 -103 -54 -146 -48 -175 -62 -242 -121 -84 -74 -411 -236 -468 -231 -28 2 -46 -3 -71 -23 -26 -20 -41 -24 -68 -19 -27 4 -40 1 -54 -15 -10 -11 -39 -23 -64 -27 -25 -4 -54 -15 -65 -25 -18 -17 -244 -70 -297 -70 -11 0 -36 13 -54 30 -19 16 -57 36 -85 44 -27 9 -64 27 -80 41 -52 43 -89 31 -89 -30 0 -22 50 -75 71 -75 5 0 9 -9 9 -19 0 -25 -106 -68 -202 -81 -74 -11 -108 -30 -108 -60 0 -10 -7 -20 -15 -24 -15 -5 -22 -56 -7 -56 4 0 13 -13 20 -29 11 -24 22 -31 70 -42 31 -7 93 -13 137 -13 71 0 90 4 170 39 50 21 104 48 120 60 26 19 53 23 195 33 136 9 167 9 180 -2 10 -10 31 -12 66 -9 32 3 54 1 58 -6 9 -14 73 -14 81 0 5 6 27 8 62 3 51 -6 56 -5 86 23 25 24 44 32 88 37 31 3 124 26 205 50 82 25 149 44 150 43 1 -1 -2 -114 -7 -252 -8 -255 -19 -386 -37 -441 -10 -32 -5 -172 8 -189 4 -5 4 -50 -1 -100 -4 -49 -12 -205 -19 -345 -6 -140 -15 -294 -20 -342 -6 -63 -5 -102 5 -145 7 -34 16 -174 21 -338 7 -255 8 -305 3 -407 -1 -18 -1 -42 -1 -53 3 -46 -3 -81 -16 -94 -9 -9 -12 -25 -8 -45 5 -28 3 -33 -23 -43 -24 -9 -32 -8 -46 6 -15 15 -18 14 -37 -9 -14 -18 -18 -34 -15 -57 5 -31 5 -32 -39 -39 -47 -7 -94 -36 -94 -59 0 -7 7 -21 16 -30 9 -9 15 -17 13 -19 -19 -17 -132 -82 -207 -120 -78 -39 -96 -53 -108 -81 -17 -42 -18 -89 -1 -103 26 -21 115 -44 217 -54 100 -10 118 -9 364 27 143 20 269 41 281 45 45 17 47 28 30 175 -18 153 -37 215 -66 215 -12 0 -19 7 -19 20 0 13 7 20 20 20 23 0 40 28 40 67 0 16 5 34 12 41 9 9 9 17 0 34 -22 45 -23 67 -6 93 14 22 15 30 4 50 -10 18 -10 37 -1 87 35 203 40 370 16 567 -14 113 -14 126 1 148 9 14 13 35 10 48 -3 12 14 120 39 239 25 119 45 230 45 246 0 45 16 36 24 -12 47 -289 83 -542 79 -558 -3 -11 0 -34 6 -52 14 -39 41 -377 46 -565 1 -72 6 -136 9 -141 3 -6 1 -22 -6 -37 -9 -21 -8 -32 5 -59 8 -18 12 -37 7 -42 -5 -5 -6 -40 -3 -78 5 -57 9 -70 25 -74 16 -4 19 -10 13 -36 -3 -17 -10 -111 -15 -210 -8 -150 -7 -183 5 -207 8 -15 15 -42 15 -59 0 -76 44 -95 210 -94 225 2 249 43 150 264 -22 48 -40 90 -40 93 0 2 9 7 20 10 15 4 20 14 20 41 0 30 -6 40 -35 58 -31 20 -35 28 -35 65 0 32 -5 46 -22 58 -19 13 -20 17 -9 24 15 10 25 127 11 136 -4 2 -3 23 3 45 8 30 8 52 -1 86 -10 36 -10 81 -1 202 11 159 6 378 -11 442 -14 51 -40 356 -40 459 0 89 0 89 28 95 15 4 50 18 77 32 46 23 52 30 73 87 16 46 22 84 22 148 0 54 6 100 15 122 8 19 14 50 13 69 -1 39 3 53 49 173 19 50 43 99 54 111 10 11 19 32 19 46 0 14 7 32 16 39 12 10 15 25 11 57 -3 27 1 59 11 83 13 35 13 44 -1 91 -9 29 -19 67 -23 83 -3 17 -19 83 -35 149 -35 144 -36 161 -9 146 13 -7 170 -10 461 -10 299 1 446 -3 453 -10 7 -7 7 -16 -2 -30 -10 -17 -10 -20 2 -20 12 0 15 -17 15 -85 0 -47 -3 -85 -7 -86 -4 0 -50 -2 -102 -4 -52 -2 -113 -8 -136 -13 -22 -5 -56 -8 -75 -6 -29 3 -28 2 10 -8 33 -9 55 -8 88 0 24 7 84 12 133 12 l90 0 0 -79 c0 -88 -1 -90 -70 -107 l-45 -12 70 -1 70 -1 1 240 2 240 -494 0 -494 0 -5 23 c-64 288 -78 332 -114 368 -22 22 -73 51 -136 78 -55 24 -124 54 -153 68 -29 14 -62 23 -73 20 -11 -3 -34 -1 -50 5 -28 10 -29 12 -29 72 0 62 0 62 45 96 45 34 83 81 106 133 10 23 18 27 52 27 32 0 46 7 77 38 70 69 78 175 20 237 -19 21 -19 22 0 73 11 29 20 74 20 100 l1 47 30 -35 c35 -40 35 -43 -10 106 -17 57 -39 108 -51 119 -28 25 -18 30 20 10 18 -9 34 -14 36 -12 11 11 -111 108 -157 124 -39 14 -49 22 -49 41 0 34 -27 93 -57 125 -33 33 -49 35 -28 3 19 -28 35 -82 28 -90 -3 -3 -24 10 -46 30 -67 57 -147 76 -302 73 -71 -1 -152 -2 -180 -3 -27 0 -58 4 -69 8 -14 7 -18 6 -14 -5z m472 -45 c54 -21 136 -88 136 -110 0 -9 5 -12 10 -9 6 3 10 21 10 38 1 25 3 29 10 16 9 -16 -2 -68 -20 -94 -10 -15 -22 -51 -14 -42 4 3 12 17 19 29 14 29 57 29 120 -2 59 -28 51 -37 -14 -16 -27 9 -53 16 -58 16 -14 -1 41 -29 58 -30 17 0 60 -43 78 -78 10 -20 41 -109 41 -121 0 -2 -6 2 -14 8 -11 10 -13 4 -8 -34 3 -31 1 -45 -7 -45 -7 0 -10 -4 -7 -9 3 -4 -1 -35 -10 -67 -25 -99 -79 -128 -70 -39 5 44 -7 66 -25 48 -5 -5 -11 -54 -13 -110 -3 -56 -8 -119 -12 -140 -9 -50 8 -34 31 32 20 53 51 95 71 95 27 0 54 -51 54 -102 0 -65 -29 -120 -75 -142 -48 -23 -71 -18 -67 14 5 36 -11 14 -32 -41 -31 -87 -113 -168 -221 -220 -155 -75 -331 3 -415 182 -41 89 -79 261 -87 393 -6 112 -15 118 -32 21 l-6 -39 -24 39 c-20 35 -22 48 -17 110 4 38 7 84 7 100 1 17 3 24 6 17 3 -8 11 -5 24 12 25 31 24 39 -2 26 -24 -13 -36 -6 -21 12 5 7 24 37 41 66 29 49 29 52 8 42 -19 -9 -20 -9 -4 2 10 7 44 33 75 57 99 75 113 79 212 55 14 -3 -4 12 -39 34 -62 39 -63 41 -35 45 16 3 88 4 159 2 99 -2 142 -7 179 -21z m-533 -787 c12 -40 28 -90 35 -112 15 -47 4 -56 -35 -28 -53 39 -77 131 -51 198 14 38 26 24 51 -58z m568 -455 c1 -29 6 -36 41 -49 38 -15 39 -17 24 -34 -40 -44 -185 -77 -243 -56 -40 14 -53 37 -22 37 23 0 24 8 12 81 l-8 47 46 6 c25 4 66 18 91 31 l45 23 6 -26 c4 -15 7 -42 8 -60z m145 -70 c17 -10 84 -41 149 -68 135 -56 171 -84 187 -144 21 -78 172 -724 177 -758 3 -20 -1 -41 -12 -58 -14 -22 -15 -30 -4 -56 11 -27 10 -33 -7 -47 -12 -10 -18 -26 -16 -42 5 -44 -18 -52 -73 -24 -36 19 -64 25 -111 25 -35 0 -65 4 -68 9 -4 5 -2 21 4 35 6 16 6 27 0 31 -14 9 -12 21 7 40 16 16 16 18 -1 27 -12 7 -16 20 -14 48 1 21 -3 45 -10 52 -6 8 -10 29 -10 48 1 19 -9 80 -21 135 -12 55 -27 123 -34 150 -6 28 -14 82 -17 120 -7 68 -7 66 -9 -37 0 -60 3 -108 8 -108 17 0 18 -85 4 -215 -13 -111 -13 -152 -2 -280 7 -82 13 -170 14 -194 0 -44 0 -44 -45 -58 -25 -7 -65 -20 -90 -28 -87 -29 -203 -45 -319 -45 -65 0 -121 4 -127 10 -5 5 -30 11 -54 11 -25 1 -69 11 -98 21 -62 23 -83 17 -26 -7 138 -58 341 -71 531 -34 59 11 110 24 113 28 3 4 31 16 63 28 l57 21 0 -43 c0 -43 0 -44 -52 -63 -122 -45 -204 -57 -403 -57 -186 0 -192 1 -275 30 l-85 31 -1 44 c-1 25 -5 58 -9 74 -5 19 -2 47 8 80 9 28 17 69 16 91 0 22 4 99 10 170 13 158 21 855 9 805 -5 -19 -12 -109 -16 -199 l-7 -163 -123 -39 c-146 -45 -269 -72 -314 -67 -26 2 -37 11 -55 43 -31 54 -30 68 5 61 35 -7 100 -14 187 -20 l70 -5 -80 13 c-44 7 -110 16 -147 20 l-68 7 0 -32 c0 -21 11 -44 35 -72 20 -23 34 -46 32 -51 -6 -17 -115 -11 -135 6 -9 8 -24 18 -32 22 -8 4 -2 -4 14 -18 l30 -25 -28 -12 c-27 -13 -30 -11 -67 29 -38 40 -39 43 -38 114 0 40 6 89 13 108 12 33 16 35 59 35 32 0 52 6 69 21 33 30 53 35 89 22 22 -8 33 -8 38 0 3 6 89 52 190 103 128 64 199 106 236 139 65 58 75 65 179 100 45 15 89 31 98 35 12 5 17 1 20 -17 5 -38 61 -60 136 -54 94 8 202 63 202 103 0 17 7 17 44 -5z m-2012 -461 c18 -16 49 -32 68 -36 50 -11 85 -31 107 -61 l19 -26 141 26 c77 14 148 29 158 32 16 7 17 3 12 -32 -6 -36 1 -86 17 -124 6 -14 -17 -17 -160 -27 -143 -10 -169 -14 -187 -32 -28 -25 -146 -78 -217 -97 -62 -16 -140 -19 -140 -4 0 14 35 30 67 31 28 1 108 27 86 28 -6 1 -17 26 -23 56 l-11 55 -32 -16 c-36 -19 -197 -32 -197 -17 0 21 29 33 96 42 69 9 138 31 182 59 19 13 22 12 22 -1 0 -8 19 -22 41 -31 l42 -17 -29 -30 -29 -30 -6 31 c-11 50 -16 45 -15 -15 l0 -55 59 57 58 58 -42 6 c-47 6 -69 29 -69 71 0 20 -8 31 -30 43 -33 17 -54 49 -46 71 8 21 21 17 58 -15z m628 -47 c-15 -39 -12 -131 6 -166 18 -36 9 -48 -39 -48 -24 0 -31 7 -49 47 -16 37 -19 59 -15 107 6 68 22 86 74 86 31 0 32 -1 23 -26z m-696 -210 c9 -25 -49 -42 -157 -46 -82 -2 -97 -1 -95 12 3 11 25 16 93 21 50 4 101 11 115 17 34 15 37 14 44 -4z m16 -48 c0 -16 -13 -21 -80 -31 -25 -4 -53 -14 -62 -22 -25 -22 -93 -5 -93 22 0 18 6 20 70 17 44 -2 85 3 110 12 51 19 55 19 55 2z m2239 -123 c1 -28 6 -55 11 -58 7 -4 7 -12 1 -23 -6 -11 -4 -26 5 -44 10 -20 12 -34 5 -46 -5 -10 -6 -24 -1 -31 4 -8 5 -30 3 -51 -3 -22 -1 -40 6 -44 8 -5 8 -13 0 -28 -6 -12 -9 -43 -7 -70 3 -26 -1 -72 -8 -101 -13 -56 -12 -58 -19 58 -2 28 -10 120 -18 205 -9 102 -11 179 -6 225 4 39 9 77 9 85 3 35 19 -28 19 -77z m191 -314 c62 -16 66 -22 52 -76 -7 -26 -15 -49 -17 -51 -2 -2 -29 5 -60 17 -31 12 -72 21 -91 21 -35 0 -35 0 -28 38 12 65 19 72 67 66 23 -3 58 -10 77 -15z m-21 -140 c29 -12 41 -24 38 -33 -3 -8 -11 -32 -18 -54 -13 -46 -32 -53 -117 -45 -49 5 -53 8 -47 27 3 12 11 47 18 79 l12 58 35 -6 c19 -4 55 -15 79 -26z m-180 -145 c-10 -23 -13 -25 -16 -11 -3 10 1 25 8 33 17 21 21 11 8 -22z m-35 -16 c11 -44 6 -60 -35 -106 -23 -26 -47 -59 -55 -75 -21 -39 -31 -212 -14 -232 7 -8 10 -18 7 -22 -15 -14 15 -42 48 -45 l35 -3 7 -165 c3 -91 5 -191 5 -223 -2 -38 3 -63 12 -72 22 -23 40 -251 32 -421 -12 -250 -12 -258 -24 -281 -16 -28 -15 -40 0 -25 18 18 38 -53 26 -88 -18 -50 -35 -57 -135 -52 -91 4 -93 5 -118 38 -24 31 -34 74 -17 74 4 0 12 -10 17 -22 10 -22 55 -52 64 -42 2 2 -5 14 -16 27 -11 12 -32 40 -46 61 -24 36 -26 46 -21 110 4 62 -34 542 -52 647 -3 22 -2 39 5 43 7 5 11 -2 11 -17 0 -50 92 -140 234 -231 l29 -18 -7 26 c-5 21 -3 26 11 26 15 0 15 2 4 9 -8 5 -23 8 -34 5 -19 -3 -87 38 -119 73 -9 10 -28 26 -42 36 -66 46 -121 200 -130 367 -2 36 -12 98 -21 138 -9 40 -15 75 -13 78 3 2 14 -16 26 -40 12 -24 29 -49 37 -56 8 -6 -6 24 -31 67 -24 43 -50 95 -56 117 -7 21 -19 40 -27 43 -63 20 -121 95 -121 159 0 34 1 35 33 32 30 -3 32 -6 35 -45 3 -39 1 -43 -20 -44 -22 -2 -22 -2 -1 -6 12 -2 26 -17 33 -34 16 -37 33 -49 20 -13 -13 32 -11 34 48 57 36 13 40 16 16 13 -18 -3 -44 -8 -59 -12 -25 -6 -26 -5 -23 31 l3 37 75 4 c41 2 100 10 130 18 35 9 61 11 72 5 22 -12 99 -11 118 1 10 7 1 8 -31 4 -47 -6 -101 9 -69 19 81 26 79 26 90 9 8 -15 9 -14 10 5 0 19 11 30 31 32 4 1 9 -9 13 -21z m-768 -3 c4 -8 0 -23 -7 -33 -13 -15 -12 -16 4 -3 9 7 17 20 17 28 0 11 4 11 21 3 34 -19 112 -40 146 -40 38 0 53 -21 53 -74 0 -22 9 -45 25 -64 l25 -29 -63 22 c-72 26 -147 41 -132 27 6 -5 35 -17 65 -26 156 -48 199 -67 191 -84 -5 -10 -18 -66 -30 -127 -11 -60 -32 -164 -46 -230 -13 -66 -25 -141 -25 -167 0 -27 -4 -48 -10 -48 -21 0 -30 -38 -16 -72 20 -49 39 -279 32 -382 -13 -175 -33 -282 -60 -329 -30 -51 -35 -77 -11 -57 8 7 15 22 16 34 l0 21 11 -22 c12 -24 2 -85 -11 -65 -4 8 -14 -3 -25 -29 -10 -22 -15 -43 -12 -46 3 -3 11 6 17 20 14 30 29 26 29 -7 0 -40 -22 -49 -97 -41 -38 4 -84 9 -103 10 -25 2 -38 9 -47 26 -16 31 -7 43 20 24 37 -26 50 -17 20 14 -31 30 -58 100 -44 114 4 4 14 -6 21 -22 15 -38 93 -111 117 -111 10 0 24 4 32 9 11 7 4 12 -25 20 -40 11 -76 42 -108 93 -19 29 -21 54 -30 323 -12 334 -16 404 -27 431 -7 20 -5 89 5 238 8 116 18 281 21 366 4 85 8 178 10 205 2 28 4 60 5 73 0 25 18 30 26 7z m855 -18 c-16 -16 -26 0 -10 19 9 11 15 12 17 4 2 -6 -1 -17 -7 -23z m49 25 c0 -5 -6 -17 -14 -28 -19 -25 -31 -12 -14 15 13 21 28 28 28 13z m66 -14 c-9 -12 -16 -37 -16 -55 0 -18 -4 -33 -10 -33 -14 0 -13 53 2 85 6 14 17 25 25 25 12 0 11 -4 -1 -22z m-50 -23 c-4 -14 -11 -23 -16 -20 -6 3 -5 16 2 30 14 31 23 25 14 -10z m-59 -20 c20 -9 52 -31 71 -51 l34 -36 -4 -85 c-4 -72 -8 -88 -26 -102 -11 -9 -28 -35 -37 -58 -10 -24 -23 -43 -31 -43 -10 0 -9 10 6 42 10 24 17 45 14 47 -8 8 -20 -12 -38 -60 -19 -52 -32 -59 -108 -59 -57 0 -64 19 -18 46 31 19 35 35 39 154 2 49 0 53 -13 40 -9 -9 -18 -44 -22 -85 -6 -66 -17 -95 -34 -95 -15 0 -18 97 -5 158 10 52 22 73 64 122 28 32 51 63 51 69 0 15 14 14 57 -4z m64 -332 c-9 -16 -10 -16 -11 -1 0 9 3 25 7 35 7 16 8 17 11 1 2 -10 -1 -25 -7 -35z m-957 -1443 c20 -18 121 -50 156 -50 29 1 -12 17 -62 24 -25 4 -51 13 -57 19 -8 10 7 10 64 -1 61 -12 80 -12 105 -2 16 7 30 16 30 21 0 5 5 9 10 9 16 0 12 -18 -10 -40 -11 -11 -15 -20 -10 -20 6 0 10 -11 10 -25 0 -34 -34 -41 -143 -26 -116 15 -127 21 -127 71 0 45 5 48 34 20z m630 5 c64 -19 156 -19 182 0 27 20 34 19 34 -8 0 -15 -9 -28 -22 -35 l-23 -11 23 0 c17 -1 22 -7 22 -26 l0 -26 -127 3 c-121 3 -128 4 -131 24 -2 15 6 26 30 38 33 17 33 17 4 11 -29 -6 -46 5 -46 33 0 15 -5 15 54 -3z m-773 -126 c-9 -23 -10 -23 -10 -2 -1 12 2 30 6 40 6 15 8 15 11 2 1 -8 -2 -26 -7 -40z m99 41 c17 -9 15 -13 -17 -45 -39 -39 -43 -41 -43 -20 0 8 -5 15 -11 15 -8 0 -8 4 1 14 6 8 17 14 23 12 7 -1 8 -1 4 2 -4 2 -3 10 4 18 14 17 15 17 39 4z m173 -37 l57 -6 0 -39 c0 -25 -5 -41 -15 -44 -15 -6 -105 44 -105 59 0 4 -10 17 -22 29 l-21 21 24 -7 c13 -4 50 -10 82 -13z m-101 -10 c10 -9 18 -24 18 -33 0 -32 -58 -96 -140 -156 -78 -56 -94 -63 -95 -39 -2 26 -27 53 -57 59 -24 5 -29 9 -19 15 8 5 21 7 30 4 53 -16 69 -26 65 -38 -3 -7 -1 -16 5 -20 6 -3 11 1 11 9 0 9 5 16 11 16 7 0 9 11 6 30 -5 23 -3 28 8 23 8 -3 15 -14 15 -24 0 -10 5 -19 10 -19 16 0 12 26 -7 42 -10 9 -35 19 -56 22 -21 4 -35 11 -32 17 9 14 37 11 75 -9 19 -11 41 -17 48 -15 6 3 12 -3 12 -13 0 -13 3 -15 11 -7 18 18 3 31 -56 48 -52 15 -74 35 -39 35 8 0 12 5 9 10 -8 13 11 13 36 0 16 -9 24 -5 50 25 34 39 53 43 81 18z m794 -5 c4 -4 3 -22 -2 -40 -9 -30 -14 -33 -49 -34 -22 -1 -49 -3 -60 -5 -12 -3 -20 2 -21 11 0 8 -2 23 -2 33 -3 26 -30 32 -52 12 -19 -17 -20 -17 -20 2 0 11 2 22 4 24 8 7 194 4 202 -3z m-1016 -52 c0 -15 -61 -68 -69 -60 -2 2 6 16 20 31 l24 27 -27 -17 c-32 -20 -42 -22 -32 -6 6 10 61 38 77 39 4 0 7 -6 7 -14z m860 5 c0 -12 -20 -25 -27 -18 -7 7 6 27 18 27 5 0 9 -4 9 -9z m-580 -16 c7 -8 30 -20 53 -27 38 -12 41 -11 63 17 l23 29 10 -28 c24 -62 5 -86 -69 -86 -40 0 -144 37 -138 49 2 3 10 18 17 34 16 31 23 33 41 12z m530 -42 c-1 -38 -3 -44 -11 -30 -9 16 -4 77 7 77 2 0 4 -21 4 -47z m240 27 c0 -13 -5 -18 -15 -14 -16 7 -19 17 -8 27 12 13 23 7 23 -13z m-182 -12 c-6 -18 -28 -21 -28 -4 0 9 7 16 16 16 9 0 14 -5 12 -12z m26 -17 c3 -5 -1 -11 -9 -15 -8 -3 -12 -12 -9 -20 7 -19 -16 -32 -28 -15 -6 9 -7 2 -2 -21 8 -42 -3 -36 -16 9 -8 28 -6 33 16 43 13 6 24 15 24 20 0 11 17 10 24 -1z m189 -20 c37 -21 34 -35 -4 -16 -47 25 -47 10 0 -19 23 -15 41 -31 41 -36 0 -15 -8 -12 -57 21 -35 25 -58 32 -102 34 l-56 3 48 -11 c36 -9 51 -19 62 -41 8 -15 15 -29 15 -30 0 -2 -26 -1 -57 2 -77 6 -93 22 -23 22 66 0 56 16 -12 22 -40 3 -48 0 -48 -14 0 -10 -7 -18 -15 -18 -24 0 -18 22 16 58 30 32 80 44 94 22 11 -18 26 -10 20 10 -6 19 -3 20 22 14 15 -4 40 -14 56 -23z m-1044 -7 c22 -21 8 -26 -30 -10 -19 7 -40 11 -46 9 -14 -5 -18 9 -6 21 10 10 65 -3 82 -20z m181 -2 c0 -14 -11 -21 -26 -15 -8 3 -11 9 -8 14 7 11 34 12 34 1z m221 -36 c-7 -8 -8 -16 -3 -18 12 -4 22 -82 12 -98 -5 -7 -33 -15 -64 -18 -55 -4 -56 -4 -56 22 0 21 10 33 51 57 49 31 63 53 18 28 -33 -17 -228 -61 -240 -53 -6 3 -8 18 -5 33 6 25 5 24 -29 -11 -39 -42 -42 -50 -19 -72 22 -22 48 -20 133 14 41 16 76 28 78 26 2 -2 -4 -20 -13 -39 -15 -31 -24 -37 -63 -44 -25 -4 -71 -8 -103 -8 -31 0 -54 -3 -51 -7 2 -5 2 -8 -1 -8 -2 0 -11 -3 -19 -6 -9 -3 -16 2 -20 13 -2 10 -12 34 -20 54 l-16 36 51 34 c29 18 60 41 70 51 22 22 40 23 78 3 44 -23 150 -22 197 2 48 26 48 26 34 9z m-464 -16 c2 0 3 -4 3 -9 0 -4 -23 -4 -52 2 -38 8 -47 12 -32 17 10 4 32 3 49 -1 16 -5 31 -9 32 -9z m1073 -4 c0 -7 10 -20 23 -29 12 -8 19 -18 16 -21 -11 -12 -34 4 -51 34 -14 25 -15 30 -3 30 8 0 15 -6 15 -14z m-1145 -16 c4 -6 15 -8 26 -5 33 11 59 -4 59 -32 0 -14 5 -43 12 -65 10 -33 9 -41 -3 -49 -25 -16 -36 -10 -78 46 -31 41 -51 57 -81 66 -27 8 -37 16 -31 22 7 7 28 1 63 -16 76 -38 78 -18 2 30 -18 11 -18 12 3 12 12 1 25 -4 28 -9z m945 -46 c0 -19 -5 -24 -24 -24 -23 0 -24 -3 -20 -37 3 -29 2 -33 -5 -18 -5 11 -10 43 -10 72 l-1 52 30 -10 c22 -8 30 -17 30 -35z m65 26 c3 -5 28 -10 55 -10 54 0 80 -7 80 -22 0 -6 -26 -8 -67 -4 -38 3 -78 6 -90 7 -35 2 -27 34 9 38 4 1 10 -3 13 -9z m-1089 -46 c42 -25 50 -34 39 -46 -6 -6 -127 15 -159 28 -16 6 -14 9 15 25 45 24 53 23 105 -7z m1280 -21 c-8 -9 -46 18 -40 28 4 6 13 4 25 -7 11 -9 17 -19 15 -21z m-176 17 c0 -6 28 -10 65 -10 51 0 65 -3 65 -15 0 -11 -5 -12 -23 -6 -37 14 -130 17 -134 5 -2 -7 6 -12 19 -11 13 0 53 -3 91 -7 47 -6 67 -5 67 3 0 6 9 11 20 11 13 0 20 -7 20 -19 0 -16 -11 -19 -107 -24 -110 -5 -140 2 -129 30 3 8 1 11 -4 8 -6 -3 -10 -4 -10 -1 0 2 -3 12 -7 22 -4 12 -3 15 5 10 7 -4 12 -2 12 3 0 6 11 11 25 11 14 0 25 -4 25 -10z m-1200 -40 c76 -27 140 -27 147 0 6 24 21 15 55 -33 l22 -30 -95 7 c-92 6 -214 28 -226 40 -8 8 16 36 31 36 6 -1 36 -9 66 -20z m737 -64 c-6 -16 -69 -28 -342 -66 -202 -28 -227 -30 -314 -20 -135 17 -205 40 -209 69 -6 37 9 41 83 20 103 -28 213 -34 330 -15 336 52 418 67 433 75 14 8 18 5 20 -21 2 -16 1 -36 -1 -42z m400 52 c-8 -27 28 -37 131 -38 93 0 103 -2 100 -17 -5 -26 -129 -31 -166 -7 -28 19 -27 19 -66 -48 l-20 -33 -7 65 c-6 63 0 90 23 90 5 0 8 -6 5 -12z m-57 -74 c0 -35 -13 -46 -24 -18 -3 9 -6 29 -6 46 0 26 2 29 15 18 8 -7 15 -28 15 -46z m339 5 c11 -36 10 -44 -3 -57 -14 -14 -19 -14 -55 3 l-40 18 32 16 c23 12 31 22 30 39 -5 39 23 24 36 -19z m-224 -10 c4 -5 19 -15 33 -20 25 -10 25 -10 6 -24 -11 -7 -37 -16 -57 -20 -42 -8 -46 -1 -22 45 16 31 29 37 40 19z m-42 -93 c39 -7 51 -5 66 8 20 18 135 23 146 6 10 -17 37 -11 62 12 l23 21 0 -41 c0 -36 -4 -44 -26 -54 -19 -9 -33 -9 -54 -1 -32 12 -114 7 -147 -9 -27 -13 -108 -2 -128 18 -9 9 -15 33 -15 57 0 40 1 41 13 17 9 -19 24 -27 60 -34z"/> <path d="M2704 10695 c14 -22 26 -53 26 -70 0 -20 3 -26 9 -17 4 8 12 13 17 12 23 -4 10 22 -31 66 -46 49 -46 49 -21 9z"/> <path d="M2628 10665 c17 -14 34 -25 38 -25 11 0 -48 49 -59 50 -5 0 5 -11 21 -25z"/> <path d="M2242 10623 c-88 -44 -89 -55 -1 -14 35 16 82 32 104 36 36 5 37 4 15 -6 -116 -53 -150 -72 -149 -82 2 -7 -10 -39 -25 -72 -15 -33 -30 -76 -32 -95 -4 -31 -3 -29 14 15 26 70 38 91 79 135 61 68 200 104 258 66 26 -17 26 -17 15 3 -14 28 1 27 31 -2 14 -12 32 -21 41 -19 9 2 24 -8 34 -22 13 -21 14 -29 4 -41 -7 -8 -16 -12 -21 -9 -5 3 -9 -2 -9 -10 0 -22 -20 -20 -46 5 -24 23 -88 28 -122 10 -28 -15 -55 -14 -46 2 4 7 3 9 -2 4 -5 -5 -9 -14 -9 -19 0 -6 -6 -13 -14 -16 -9 -3 -11 0 -6 9 20 32 -70 -49 -95 -87 -30 -43 -65 -121 -73 -164 -3 -19 -5 -17 -6 10 -1 38 8 73 34 134 l17 40 -26 -25 c-19 -17 -26 -34 -26 -62 0 -24 -5 -40 -15 -43 -18 -7 -19 -44 -3 -99 6 -22 11 -44 10 -50 -1 -6 18 -9 46 -7 47 4 137 -9 176 -24 35 -14 -3 36 -39 52 -41 17 -118 18 -147 3 -17 -9 -19 -8 -15 8 3 10 11 38 17 63 15 56 62 147 97 184 27 29 28 30 198 16 6 -1 46 6 90 15 154 32 238 -2 270 -108 18 -60 19 -101 4 -128 -9 -18 -8 -19 9 -10 24 13 42 61 42 110 0 43 -27 104 -64 149 -23 26 -35 32 -69 32 -51 0 -69 10 -57 30 6 8 10 24 9 35 0 15 -3 12 -13 -11 -13 -30 -59 -74 -78 -74 -4 0 -6 11 -2 24 16 64 -46 112 -169 132 -124 20 -153 17 -235 -23z m284 -114 c9 -15 -13 -28 -40 -22 -40 9 -47 13 -41 23 8 14 72 13 81 -1z"/> <path d="M2770 10605 c-1 -5 -2 -14 -1 -18 1 -4 -6 -22 -15 -40 l-16 -32 22 21 c15 15 20 30 17 50 -2 16 -5 25 -7 19z"/> <path d="M2871 10518 c2 -2 21 -19 42 -37 20 -19 37 -29 37 -23 0 19 -46 62 -66 62 -10 0 -15 -1 -13 -2z"/> <path d="M2625 10193 c-25 -6 -65 -42 -65 -59 0 -10 7 -10 33 1 50 21 185 37 208 25 28 -15 23 5 -6 24 -24 16 -121 21 -170 9z"/> <path d="M2630 10087 c-29 -15 -49 -34 -57 -55 -16 -40 -4 -42 19 -3 9 16 26 35 38 41 22 12 22 12 6 -11 -19 -28 -23 -80 -4 -61 18 18 38 14 38 -8 0 -12 -7 -20 -16 -20 -14 0 -14 -3 -4 -15 7 -8 23 -15 37 -15 27 0 73 41 73 65 0 20 -19 57 -34 67 -7 5 -6 8 4 8 27 0 60 -30 60 -56 0 -13 5 -24 10 -24 13 0 13 46 0 70 -11 20 -60 40 -100 40 -15 0 -46 -10 -70 -23z m74 -23 c3 -9 6 -24 6 -35 0 -24 -27 -15 -35 12 -11 33 17 55 29 23z"/> <path d="M2226 10079 c-27 -21 -33 -52 -16 -79 8 -12 10 -11 10 5 0 30 28 65 51 65 19 0 19 -1 5 -16 -18 -17 -22 -74 -6 -74 6 0 10 5 10 10 0 6 7 10 15 10 21 0 19 -38 -2 -43 -15 -3 -12 -6 10 -17 25 -12 31 -11 55 7 30 22 40 66 21 89 -16 19 0 18 23 -3 10 -9 18 -12 18 -6 0 27 -86 72 -141 73 -15 0 -38 -9 -53 -21z m122 -47 c4 -24 -7 -29 -26 -10 -18 18 -15 40 6 36 9 -2 18 -13 20 -26z"/> <path d="M2946 10016 c-9 -19 -16 -40 -16 -48 0 -7 -8 -24 -17 -37 l-16 -24 34 7 c46 9 60 29 48 69 -13 45 -12 49 11 42 15 -5 18 -3 14 9 -11 28 -41 18 -58 -18z"/> <path d="M2560 9970 c0 -12 67 -63 78 -58 5 1 -11 18 -35 35 -24 18 -43 29 -43 23z"/> <path d="M2220 9950 c11 -21 46 -43 59 -38 5 2 -9 15 -31 31 -33 23 -37 24 -28 7z"/> <path d="M2446 9888 c-5 -10 -6 -25 -2 -33 6 -17 46 -21 46 -5 0 6 -6 10 -14 10 -8 0 -16 10 -19 23 -3 19 -4 20 -11 5z"/> <path d="M2586 9768 c-33 -17 -52 -20 -113 -16 -71 5 -97 -3 -50 -16 69 -18 217 11 217 44 0 14 -9 12 -54 -12z"/> <path d="M2651 9449 c-35 -28 -22 -32 14 -3 17 13 26 24 20 24 -5 -1 -21 -10 -34 -21z"/> <path d="M2795 9389 c-22 -17 -58 -40 -80 -50 -22 -10 -33 -19 -25 -19 21 0 111 53 134 79 26 29 18 26 -29 -10z"/> <path d="M2343 9343 c9 -2 25 -2 35 0 9 3 1 5 -18 5 -19 0 -27 -2 -17 -5z"/> <path d="M2450 9337 c22 -22 77 -37 129 -36 86 2 94 14 10 14 -63 0 -93 5 -119 19 -24 12 -30 13 -20 3z"/> <path d="M3058 9283 c-17 -20 -58 -98 -58 -110 0 -4 14 17 30 47 17 30 38 61 47 68 9 6 12 12 6 12 -5 0 -17 -8 -25 -17z"/> <path d="M2115 9175 c-13 -30 -12 -122 2 -136 10 -10 11 -4 7 27 l-5 39 20 -44 c30 -61 38 -44 13 26 -12 32 -23 69 -25 83 -3 23 -4 24 -12 5z"/> <path d="M2508 9153 c-8 -10 -20 -27 -26 -38 -8 -15 -19 -19 -50 -16 -51 3 -67 -19 -47 -65 7 -18 18 -35 24 -39 8 -4 6 -15 -7 -33 -44 -63 -32 -105 28 -101 35 3 42 -1 62 -31 16 -24 32 -35 48 -35 16 0 32 11 48 35 20 30 27 34 62 31 62 -4 75 42 28 96 -20 21 -20 22 2 51 14 18 20 40 18 58 -3 27 -6 29 -45 30 -37 1 -46 5 -66 35 -26 39 -56 48 -79 22z m82 -64 c0 -12 -55 -20 -78 -12 l-22 8 21 34 20 34 30 -29 c16 -15 29 -31 29 -35z m-146 -15 c11 -4 14 -14 10 -33 -11 -42 -16 -45 -35 -20 -33 43 -21 70 25 53z m232 -8 c3 -8 -2 -26 -12 -41 -17 -25 -19 -26 -31 -9 -7 10 -13 28 -13 41 0 18 6 23 25 23 14 0 28 -6 31 -14z m-181 -23 c-22 -15 -28 -12 -19 10 3 9 12 13 21 10 14 -5 13 -8 -2 -20z m109 -12 c-2 -2 -11 2 -19 9 -13 11 -13 15 -3 21 8 5 15 2 19 -9 4 -9 5 -19 3 -21z m-29 -7 c38 -25 34 -66 -9 -89 -32 -17 -34 -17 -59 1 -34 24 -36 66 -4 87 29 21 42 21 72 1z m-123 -99 c9 -34 3 -45 -22 -45 -27 0 -34 17 -20 51 15 36 31 33 42 -6z m218 6 c13 -33 7 -51 -18 -51 -34 0 -41 13 -27 48 17 40 29 41 45 3z m-171 -15 c9 -10 8 -15 -4 -20 -8 -3 -15 -4 -15 -2 0 3 -3 11 -6 20 -8 20 9 21 25 2z m101 -1 c0 -8 -7 -15 -15 -15 -26 0 -18 20 13 29 1 1 2 -6 2 -14z m-36 -31 c23 -9 20 -27 -8 -53 l-25 -23 -20 33 c-15 25 -17 35 -8 41 15 9 40 10 61 2z"/> <path d="M2976 9108 c-3 -13 -5 -32 -5 -43 1 -11 5 -2 10 19 10 42 6 62 -5 24z"/> <path d="M1890 9075 c7 -8 16 -13 20 -10 5 3 12 0 15 -5 5 -8 -5 -9 -32 -4 -21 4 -36 4 -33 1 8 -8 153 -58 180 -61 14 -2 49 -16 78 -31 77 -41 73 -25 -6 20 -144 84 -254 128 -222 90z m109 -47 c22 -12 39 -23 37 -26 -2 -2 -26 8 -52 22 -27 14 -44 26 -37 26 6 0 29 -10 52 -22z"/> <path d="M1774 9027 c-3 -10 -4 -24 0 -32 7 -18 101 -80 136 -89 25 -6 25 -6 3 5 -42 22 -23 29 60 24 l82 -5 -80 14 c-91 15 -116 25 -162 69 -28 26 -33 28 -39 14z"/> <path d="M1617 8960 c-22 -44 -24 -56 -15 -88 6 -20 17 -46 25 -57 15 -20 15 -20 8 0 -17 48 -17 97 0 141 24 63 13 66 -18 4z"/> <path d="M1546 8965 c-3 -9 -5 -29 -5 -43 1 -20 3 -17 9 13 8 43 7 57 -4 30z"/> <path d="M1501 8875 c-1 -38 2 -41 46 -62 58 -28 65 -24 15 8 -23 15 -41 37 -49 59 l-12 35 0 -40z"/> <path d="M3220 8768 c-16 -56 -57 -136 -87 -172 -13 -16 -22 -30 -20 -32 6 -7 92 44 112 66 22 24 9 27 -17 3 -29 -26 -31 -9 -5 53 24 58 43 124 34 124 -2 0 -10 -19 -17 -42z"/> <path d="M2936 8739 c-8 -42 0 -50 9 -9 4 17 5 34 2 36 -2 3 -7 -10 -11 -27z"/> <path d="M2901 8608 c-34 -123 -120 -293 -177 -352 -26 -27 -90 -77 -143 -111 -117 -77 -168 -115 -154 -115 5 0 30 14 54 32 67 48 189 119 189 109 0 -9 -37 -43 -103 -95 -53 -42 -37 -45 20 -3 71 52 224 210 283 292 14 20 -42 -26 -67 -55 -8 -8 -2 12 13 45 52 119 72 171 97 253 14 45 22 82 19 82 -4 0 -18 -37 -31 -82z"/> <path d="M3076 8615 c4 -8 7 -15 9 -15 1 0 8 7 15 15 10 13 9 15 -8 15 -15 0 -20 -5 -16 -15z"/> <path d="M2827 8588 c-38 -95 -47 -121 -39 -113 13 15 54 116 49 121 -3 3 -7 -1 -10 -8z"/> <path d="M3145 8536 c-23 -6 -41 -19 -43 -28 -3 -15 1 -16 30 -7 53 15 101 13 136 -5 37 -19 41 -10 11 28 -23 29 -64 33 -134 12z"/> <path d="M3160 8472 c0 -5 11 -13 24 -16 13 -3 46 -16 73 -28 26 -12 53 -24 58 -27 6 -2 2 5 -8 16 -9 11 -14 22 -11 26 3 3 -11 10 -32 16 -77 19 -104 23 -104 13z"/> <path d="M2242 8420 c0 -19 2 -27 5 -17 2 9 2 25 0 35 -3 9 -5 1 -5 -18z"/> <path d="M3107 8439 c6 -6 9 -18 6 -25 -4 -10 4 -14 25 -14 17 0 43 -5 58 -10 51 -20 36 -1 -25 29 -64 33 -82 38 -64 20z"/> <path d="M2255 8333 c7 -62 29 -130 52 -155 18 -20 69 -24 122 -8 42 12 52 5 25 -15 -29 -24 -65 -37 -114 -45 -42 -6 -43 -7 -18 -14 49 -14 217 80 288 160 l25 28 -29 -18 c-67 -42 -94 -56 -153 -75 -34 -12 -79 -21 -98 -21 -33 0 -38 4 -56 44 -11 25 -26 73 -34 108 l-15 63 5 -52z"/> <path d="M2876 8282 c-15 -48 -41 -111 -57 -139 -29 -52 -26 -63 11 -43 11 6 17 16 14 25 -4 8 3 39 14 68 26 64 55 167 50 172 -2 3 -17 -35 -32 -83z"/> <path d="M3150 8341 c-19 -13 -13 -17 33 -25 30 -6 37 -4 31 5 -5 9 5 11 42 6 37 -5 45 -4 31 4 -26 15 -119 22 -137 10z"/> <path d="M2620 7767 c-30 -6 -47 -12 -37 -15 11 -2 16 -9 13 -18 -7 -18 -9 -19 65 16 69 31 58 36 -41 17z"/> <path d="M2610 7675 c0 -2 15 -12 33 -20 l32 -16 -25 20 c-24 20 -40 26 -40 16z"/> <path d="M2851 7494 c0 -12 7 -28 17 -35 15 -12 16 -12 6 1 -7 8 -14 24 -17 35 -4 19 -5 19 -6 -1z"/> <path d="M2933 7365 c0 -27 2 -38 4 -22 2 15 2 37 0 50 -2 12 -4 0 -4 -28z"/> <path d="M2709 7191 c15 -39 62 -121 50 -86 -22 60 -55 135 -61 135 -5 0 0 -22 11 -49z"/> <path d="M2920 6979 c-8 -5 -31 -15 -50 -22 l-35 -14 50 1 c28 1 64 -2 80 -7 27 -6 28 -6 13 6 -10 8 -18 20 -18 28 0 12 -2 12 -9 0 -8 -12 -10 -11 -12 1 -3 11 -9 13 -19 7z"/> <path d="M2737 6920 c3 -11 14 -20 24 -20 25 0 24 4 -5 23 -23 15 -24 15 -19 -3z"/> <path d="M2760 6352 c0 -9 21 -42 73 -109 l39 -53 44 36 c24 20 44 41 44 48 0 8 -2 8 -8 0 -12 -19 -70 -44 -86 -38 -15 6 -76 90 -76 105 0 4 -7 9 -15 13 -8 3 -15 2 -15 -2z"/> <path d="M2984 6215 c-10 -19 -22 -35 -26 -35 -5 0 -8 -5 -8 -12 0 -20 56 40 57 62 2 28 -1 25 -23 -15z"/> <path d="M2305 7895 c17 -8 39 -14 50 -14 11 0 0 7 -25 15 -56 17 -64 17 -25 -1z"/> <path d="M2479 7623 c-15 -15 -31 -41 -36 -57 -5 -17 -15 -32 -22 -34 -9 -3 -7 5 5 24 12 20 -1 11 -39 -26 -31 -30 -57 -55 -57 -56 0 -1 18 5 41 14 47 18 84 52 117 107 29 48 24 64 -9 28z"/> <path d="M2364 7595 c-10 -8 -14 -15 -8 -15 5 0 19 7 30 15 10 8 14 15 8 15 -5 0 -19 -7 -30 -15z"/> <path d="M2415 7407 c-4 -36 -5 -71 -3 -79 3 -7 8 20 12 60 4 41 5 76 3 79 -3 2 -8 -25 -12 -60z"/> <path d="M2403 7275 c0 -22 2 -30 4 -17 2 12 2 30 0 40 -3 9 -5 -1 -4 -23z"/> <path d="M2411 7157 c0 -10 -8 -20 -16 -23 -10 -4 -15 -19 -14 -48 1 -27 3 -33 6 -16 3 14 12 33 20 42 8 9 13 27 10 40 -3 15 -5 17 -6 5z"/> <path d="M2360 7023 c-14 -2 -36 -6 -50 -9 l-25 -6 25 -19 c32 -24 39 -24 33 0 -3 14 0 19 14 18 10 -1 21 -13 24 -27 6 -21 7 -19 8 13 0 20 0 36 -1 36 -2 -1 -14 -3 -28 -6z"/> <path d="M2180 6970 c6 -11 16 -20 23 -20 8 0 7 -3 -2 -9 -21 -13 38 -41 86 -41 l38 0 -43 25 c-24 14 -56 34 -72 45 -36 25 -44 25 -30 0z"/> <path d="M2300 6850 c45 -25 55 -25 57 0 2 17 -4 20 -45 20 l-47 -1 35 -19z"/> <path d="M2371 6858 c-1 -10 3 -18 8 -18 5 0 12 -10 14 -22 2 -13 5 -6 5 17 1 26 -1 35 -7 26 -7 -11 -9 -11 -14 0 -4 10 -6 9 -6 -3z"/> <path d="M2394 6685 c0 -60 1 -84 3 -52 2 32 2 81 0 110 -2 29 -3 3 -3 -58z"/> <path d="M2382 6460 c0 -19 2 -27 5 -17 2 9 2 25 0 35 -3 9 -5 1 -5 -18z"/> <path d="M2364 6367 c-5 -7 -13 -20 -17 -29 -11 -30 17 -20 35 12 17 30 5 43 -18 17z"/> <path d="M2306 6331 c-11 -12 -17 -23 -14 -26 8 -9 41 21 37 34 -3 9 -11 6 -23 -8z"/> <path d="M3015 7574 c-9 -21 -20 -47 -25 -56 -12 -20 2 -24 17 -5 15 18 36 87 29 94 -3 3 -13 -11 -21 -33z"/> <path d="M2835 6084 c-52 -27 -52 -36 0 -13 57 25 64 29 44 29 -8 0 -27 -7 -44 -16z"/> <path d="M2150 5973 c0 -10 5 -25 10 -33 8 -11 9 -8 4 13 -4 16 -2 27 4 27 6 0 13 -10 15 -22 5 -20 5 -20 4 2 -2 29 -37 42 -37 13z"/> <path d="M2086 5919 c26 -13 40 -15 45 -8 4 8 10 5 18 -7 9 -17 10 -17 11 -2 0 23 -14 30 -67 34 l-45 3 38 -20z"/> <path d="M2892 5956 c7 -8 14 -10 16 -6 2 5 17 4 35 -1 39 -11 37 -11 37 2 0 5 -4 7 -10 4 -5 -3 -10 -1 -10 4 0 6 -18 11 -40 11 -35 0 -39 -2 -28 -14z"/> <path d="M209 10545 c-10 -16 -7 -297 3 -287 5 5 7 73 6 153 -2 79 -6 140 -9 134z"/> <path d="M809 10266 c-117 -44 -207 -151 -225 -266 -4 -22 -11 -43 -15 -46 -5 -3 -7 -10 -4 -15 14 -21 23 -6 28 46 11 110 102 223 213 265 110 41 234 12 321 -77 37 -39 43 -42 29 -17 -20 33 -89 84 -146 107 -46 18 -156 20 -201 3z"/> <path d="M1182 10088 c8 -27 17 -38 31 -38 26 0 87 -63 87 -89 0 -31 48 -48 69 -25 15 15 14 16 -4 6 -26 -13 -51 0 -59 32 -3 13 -23 38 -43 55 -57 46 -67 56 -80 77 -9 15 -9 11 -1 -18z"/> <path d="M200 10003 c0 -86 1 -91 20 -86 26 7 38 25 14 21 -16 -3 -19 6 -22 72 -5 105 -12 101 -12 -7z"/> <path d="M1525 9955 c17 -9 37 -24 47 -35 11 -14 28 -20 55 -19 l38 1 -36 7 c-19 4 -51 19 -71 34 -19 15 -41 27 -49 27 -8 0 0 -7 16 -15z"/> <path d="M502 9924 c-17 -12 -40 -15 -95 -11 -40 2 -83 7 -97 11 -23 7 -24 7 -5 -6 22 -14 185 -28 185 -15 0 4 15 14 33 22 17 8 25 14 17 15 -9 0 -26 -7 -38 -16z"/> <path d="M4253 9895 c0 -22 2 -30 4 -17 2 12 2 30 0 40 -3 9 -5 -1 -4 -23z"/> <path d="M200 9835 c0 -8 5 -15 10 -15 6 0 10 4 10 10 0 6 149 11 413 13 l412 2 -422 3 c-370 2 -423 0 -423 -13z"/> <path d="M1198 9843 c84 -2 219 -2 300 0 81 1 12 3 -153 3 -165 0 -231 -2 -147 -3z"/> <path d="M1718 9843 c23 -2 59 -2 80 0 20 2 1 4 -43 4 -44 0 -61 -2 -37 -4z"/> <path d="M3960 8770 c0 -5 -8 -10 -17 -12 -10 -3 29 -3 86 -1 111 4 147 12 65 15 -27 1 -68 3 -91 4 -24 1 -43 -2 -43 -6z"/> <path d="M3760 8759 l-115 -5 138 -2 c75 -1 137 2 137 7 0 5 -10 8 -22 7 -13 0 -75 -3 -138 -7z"/> <path d="M3513 8753 c15 -2 37 -2 50 0 12 2 0 4 -28 4 -27 0 -38 -2 -22 -4z"/> <path d="M3937 8689 c-73 -11 -71 -23 2 -15 35 3 80 6 99 6 19 0 33 2 31 4 -9 9 -86 12 -132 5z"/> <path d="M3380 8671 c8 -5 35 -5 60 -1 l45 7 -60 1 c-37 1 -54 -2 -45 -7z"/> <path d="M200 8365 l0 -255 28 7 c43 12 633 9 662 -3 19 -9 39 -7 90 7 36 11 92 20 125 20 l60 1 -59 10 c-39 6 -68 6 -88 -1 -17 -6 -35 -8 -40 -5 -5 3 -18 -2 -28 -11 -15 -13 -23 -14 -40 -5 -11 6 -33 10 -48 9 -15 -1 -70 -1 -122 0 -136 4 -78 17 111 26 84 4 164 11 178 16 45 14 -224 8 -301 -7 -40 -8 -145 -16 -233 -19 -88 -3 -178 -7 -200 -10 -52 -7 -61 1 -67 57 l-5 47 41 5 c86 11 89 13 26 15 l-65 1 0 77 c0 85 3 90 60 93 21 2 24 4 10 7 -53 11 -74 25 -71 46 1 12 8 23 14 25 8 2 8 9 -1 23 -21 36 10 47 139 48 121 2 156 7 132 22 -7 5 -79 9 -160 9 l-148 0 0 -255z"/> <path d="M920 8611 c-23 -6 -24 -7 -5 -15 24 -9 1231 -10 1246 0 8 4 7 9 -2 15 -17 10 -1203 10 -1239 0z"/> <path d="M388 8443 c23 -2 61 -2 85 0 23 2 4 4 -43 4 -47 0 -66 -2 -42 -4z"/> <path d="M3810 8443 c-19 -1 -77 -6 -128 -9 -51 -3 -91 -9 -87 -12 12 -12 457 7 449 19 -5 8 -156 10 -234 2z"/> <path d="M4163 8423 c4 -6 19 -14 34 -18 15 -3 31 -12 35 -18 12 -19 9 -74 -5 -85 -8 -7 -96 -11 -234 -12 -227 -1 -249 -4 -338 -45 -36 -17 -78 -26 -148 -31 -164 -12 -176 -23 -22 -21 139 3 140 3 200 38 l60 34 263 3 262 3 0 81 c0 72 -2 79 -17 73 -21 -8 -27 -8 -67 1 -19 5 -27 3 -23 -3z"/> <path d="M3528 8413 c12 -2 30 -2 40 0 9 3 -1 5 -23 4 -22 0 -30 -2 -17 -4z"/> <path d="M4032 8399 c-13 -5 -29 -6 -34 -2 -6 3 -17 -2 -24 -12 -11 -15 -16 -16 -29 -5 -13 11 -19 11 -32 -3 -14 -13 -20 -14 -42 -3 -24 12 -263 24 -251 13 3 -3 41 -7 85 -11 44 -3 103 -10 130 -17 72 -16 80 -15 210 25 64 20 73 25 45 25 -19 0 -46 -4 -58 -10z"/> <path d="M1048 8333 c23 -2 59 -2 80 0 20 2 1 4 -43 4 -44 0 -61 -2 -37 -4z"/> <path d="M493 8303 c15 -2 39 -2 55 0 15 2 2 4 -28 4 -30 0 -43 -2 -27 -4z"/> <path d="M1595 8275 c-68 -10 -73 -12 -35 -14 88 -2 276 13 245 20 -45 10 -120 8 -210 -6z"/> <path d="M1920 8275 l-55 -13 65 -1 c77 -1 118 8 98 20 -17 11 -40 10 -108 -6z"/> <path d="M1760 8241 c-14 -4 -65 -6 -115 -5 -88 2 -88 2 -30 -7 93 -14 137 -13 170 5 31 16 19 20 -25 7z"/> <path d="M4014 8220 l-221 -5 -40 -28 c-30 -20 -62 -31 -114 -39 -41 -5 -101 -21 -134 -34 -33 -14 -92 -27 -132 -31 -40 -3 -70 -9 -68 -13 10 -16 177 11 229 37 16 9 60 19 97 24 45 5 88 19 133 43 l65 35 197 1 c202 1 226 -4 217 -39 -3 -10 0 -22 6 -25 7 -5 11 8 11 38 0 31 -4 45 -12 44 -7 -1 -112 -5 -234 -8z"/> <path d="M3343 8163 c-44 -6 -53 -33 -10 -32 45 1 80 12 85 27 4 12 -10 13 -75 5z"/> <path d="M1834 8121 c-15 -15 0 -31 28 -31 17 0 28 3 24 7 -3 4 6 12 21 19 27 11 25 12 -20 10 -27 0 -51 -3 -53 -5z"/> <path d="M4250 7956 c0 -163 0 -165 -22 -169 -20 -4 -19 -4 5 -6 l27 -1 0 170 c0 94 -2 170 -5 170 -3 0 -5 -74 -5 -164z"/> <path d="M647 8099 c-10 -6 -28 -8 -40 -5 -15 4 -27 -1 -39 -16 -16 -22 -17 -22 -37 -4 -19 17 -21 17 -27 2 -8 -20 -36 -20 -76 0 -24 13 -36 14 -50 5 -12 -7 -25 -8 -43 -1 -15 6 -51 10 -81 10 l-54 0 0 -94 0 -93 65 -7 c42 -4 95 -1 148 8 113 20 562 31 645 16 35 -6 128 -12 206 -13 l143 -2 31 32 c34 37 96 67 162 77 54 8 425 8 483 0 39 -6 41 -5 26 10 -12 14 -46 18 -195 22 -281 10 -396 -10 -489 -86 l-40 -32 -160 7 c-327 15 -675 14 -780 -2 -103 -15 -166 -17 -198 -7 -15 5 -17 15 -15 72 l3 67 35 -1 c84 -3 158 -12 175 -21 12 -7 30 -7 52 -1 18 5 38 6 44 3 5 -4 15 -2 22 3 11 8 121 44 172 55 11 3 0 5 -25 6 -25 0 -53 -4 -63 -10z"/> <path d="M1221 8069 c-30 -5 -57 -12 -60 -14 -7 -7 107 -6 180 2 54 6 59 8 34 14 -41 9 -90 8 -154 -2z"/> <path d="M1321 8023 c-29 -8 -61 -11 -70 -7 -15 7 -103 13 -97 7 2 -2 28 -10 59 -18 61 -16 100 -12 156 16 42 21 27 22 -48 2z"/> <path d="M4118 7995 c-3 -3 -54 -14 -114 -24 l-109 -19 65 -1 c36 0 102 2 148 6 l82 6 -30 18 c-34 21 -34 21 -42 14z"/> <path d="M1697 7952 c-53 -13 -77 -26 -111 -59 -54 -51 -90 -58 -331 -57 -136 0 -195 4 -295 23 -108 20 -129 22 -160 10 -41 -15 -129 -14 -220 2 -59 10 -75 9 -150 -10 -47 -12 -118 -24 -158 -28 l-72 -6 0 -44 c0 -37 3 -44 17 -41 12 2 17 13 18 33 0 29 0 30 83 41 45 7 96 17 114 23 44 16 132 14 175 -4 40 -17 229 -22 203 -5 -45 28 108 23 210 -7 53 -16 54 -17 25 -24 -27 -6 -26 -7 13 -8 24 0 41 3 38 8 -3 4 9 5 26 2 31 -6 349 12 418 24 25 5 41 16 55 38 20 31 71 63 117 73 61 12 195 19 260 13 40 -4 91 -8 113 -8 40 1 40 1 10 10 -16 5 -97 12 -180 14 -121 4 -163 1 -218 -13z"/> <path d="M3353 7773 c9 -2 25 -2 35 0 9 3 1 5 -18 5 -19 0 -27 -2 -17 -5z"/> <path d="M3925 7750 c-212 -31 -245 -37 -202 -39 28 -1 443 56 462 63 29 12 -92 1 -260 -24z"/> <path d="M200 7695 c0 -25 14 -34 24 -16 8 12 -3 41 -15 41 -5 0 -9 -11 -9 -25z"/> <path d="M4253 7680 c0 -25 2 -35 4 -22 2 12 2 32 0 45 -2 12 -4 2 -4 -23z"/> <path d="M4253 7560 c0 -36 2 -50 4 -32 2 17 2 47 0 65 -2 17 -4 3 -4 -33z"/> <path d="M1740 7435 c-253 -31 -357 -47 -342 -53 18 -6 515 59 527 70 5 4 7 8 5 7 -3 -1 -88 -11 -190 -24z"/> <path d="M4245 7454 c-5 -2 -50 -13 -100 -23 -49 -11 -79 -20 -65 -20 14 0 52 6 85 13 33 7 63 11 68 9 4 -2 7 -19 7 -38 0 -24 -5 -35 -17 -37 -13 -3 -10 -6 10 -10 l27 -5 0 58 c0 33 -1 59 -2 58 -2 0 -7 -2 -13 -5z"/> <path d="M895 7428 c-11 -6 -23 -15 -26 -20 -3 -5 -32 -13 -65 -19 -32 -5 -88 -18 -124 -29 l-65 -20 94 5 c52 3 111 5 131 5 20 0 45 7 56 16 19 15 19 16 -1 8 -34 -12 -132 -16 -115 -4 8 5 23 10 33 10 10 0 43 12 73 26 58 28 107 26 83 -3 -11 -13 -8 -14 27 -7 51 9 51 10 15 28 -35 19 -87 20 -116 4z"/> <path d="M3970 7399 c-19 -5 -102 -24 -185 -44 l-150 -35 95 5 c52 3 170 8 263 11 92 4 167 10 167 13 0 3 -66 3 -147 0 -82 -4 -150 -5 -153 -2 -9 8 23 21 84 33 33 7 72 16 86 20 l25 8 -25 0 c-14 0 -41 -4 -60 -9z"/> <path d="M213 7360 c0 -25 2 -35 4 -22 2 12 2 32 0 45 -2 12 -4 2 -4 -23z"/> <path d="M3250 7295 c-81 -17 -93 -25 -30 -18 30 3 71 12 90 19 44 16 13 15 -60 -1z"/> <path d="M4254 7050 c0 -146 2 -205 3 -132 2 72 2 192 0 265 -1 72 -3 13 -3 -133z"/> <path d="M790 7160 c-33 -11 71 -11 155 0 57 7 55 7 -35 8 -52 0 -106 -4 -120 -8z"/> <path d="M213 7010 c0 -25 2 -35 4 -22 2 12 2 32 0 45 -2 12 -4 2 -4 -23z"/> <path d="M214 6785 c0 -55 1 -76 3 -47 2 29 2 74 0 100 -2 26 -3 2 -3 -53z"/> <path d="M3563 6813 c9 -2 25 -2 35 0 9 3 1 5 -18 5 -19 0 -27 -2 -17 -5z"/> <path d="M4253 6725 c0 -22 2 -30 4 -17 2 12 2 30 0 40 -3 9 -5 -1 -4 -23z"/> <path d="M1901 6731 c-10 -7 -2 -8 25 -4 27 3 54 -2 87 -16 35 -15 54 -18 65 -11 14 8 11 10 -13 10 -16 0 -41 7 -55 15 -28 16 -88 19 -109 6z"/> <path d="M1800 6704 c-25 -7 -76 -14 -115 -14 -38 -1 -104 -7 -145 -14 -74 -13 -72 -13 125 -14 117 0 186 3 167 8 -42 10 -50 18 -26 26 33 10 59 23 49 23 -5 0 -30 -7 -55 -15z"/> <path d="M220 6674 c-1 -29 64 -104 108 -126 74 -36 202 -38 318 -3 49 15 98 31 109 36 34 15 -142 -1 -237 -22 -48 -10 -102 -19 -120 -19 -42 0 -123 56 -154 107 -13 21 -24 33 -24 27z"/> <path d="M4226 6649 c-24 -41 -65 -79 -99 -91 -15 -6 -26 -12 -24 -14 8 -9 63 18 90 44 29 27 62 80 55 88 -2 2 -12 -10 -22 -27z"/> <path d="M4047 6543 c-20 -2 -35 -8 -33 -12 7 -10 76 -1 76 10 0 5 -1 8 -2 7 -2 -1 -20 -3 -41 -5z"/> <path d="M1473 6527 c17 -5 37 -6 48 -1 14 7 7 9 -28 10 -43 1 -45 0 -20 -9z"/> <path d="M3260 6532 c0 -5 15 -9 33 -9 26 -1 28 1 12 7 -27 11 -45 12 -45 2z"/> <path d="M3685 6530 c-4 -6 5 -10 20 -10 15 0 24 4 20 10 -3 6 -12 10 -20 10 -8 0 -17 -4 -20 -10z"/> <path d="M3910 6530 c-13 -9 -13 -10 0 -10 8 0 22 5 30 10 13 9 13 10 0 10 -8 0 -22 -5 -30 -10z"/> <path d="M1233 6523 c9 -2 25 -2 35 0 9 3 1 5 -18 5 -19 0 -27 -2 -17 -5z"/> <path d="M1373 6523 c15 -2 37 -2 50 0 12 2 0 4 -28 4 -27 0 -38 -2 -22 -4z"/> <path d="M2563 6523 c15 -2 37 -2 50 0 12 2 0 4 -28 4 -27 0 -38 -2 -22 -4z"/> <path d="M3118 6523 c12 -2 30 -2 40 0 9 3 -1 5 -23 4 -22 0 -30 -2 -17 -4z"/> <path d="M3203 6523 c9 -2 25 -2 35 0 9 3 1 5 -18 5 -19 0 -27 -2 -17 -5z"/> <path d="M2553 5693 c26 -2 67 -2 90 0 23 2 2 3 -48 3 -49 0 -68 -1 -42 -3z"/> <path d="M3161 5696 c2 -2 45 -14 94 -25 133 -32 183 -59 169 -94 -8 -22 -66 -55 -111 -62 -44 -7 -96 -26 -89 -32 8 -8 140 28 177 49 93 52 47 107 -122 148 -79 19 -128 25 -118 16z"/> <path d="M1490 5649 c-35 -14 -70 -49 -70 -70 0 -10 15 -29 33 -43 34 -26 158 -67 198 -65 13 0 -2 7 -34 15 -72 17 -163 60 -171 80 -8 21 13 51 46 65 28 11 47 30 31 28 -4 0 -19 -5 -33 -10z"/> <path d="M1698 5463 c12 -2 30 -2 40 0 9 3 -1 5 -23 4 -22 0 -30 -2 -17 -4z"/> <path d="M2155 5460 l-300 -6 405 -1 c223 -1 421 2 440 7 38 9 -30 9 -545 0z"/> <path d="M2785 5400 c13 -20 72 -40 117 -39 40 2 40 2 -14 9 -32 4 -69 15 -84 25 -15 9 -23 12 -19 5z"/> </g> </svg> 